<?xml version="1.0" encoding="utf-8"?>
<!-- Generator: Adobe Illustrator 19.0.0, SVG Export Plug-In . SVG Version: 6.00 Build 0)  -->
<svg version="1.1" id="Capa_1" xmlns="http://www.w3.org/2000/svg" xmlns:xlink="http://www.w3.org/1999/xlink" x="0px" y="0px"
	 viewBox="-270 393.5 54.8 54.4" style="enable-background:new -270 393.5 54.8 54.4;" xml:space="preserve">
<style type="text/css">
	.st0{fill:#010202;}
</style>
<g id="XMLID_14_">
	<path id="XMLID_60_" class="st0" d="M-215.7,428.7l-18.7,18.7c-0.7,0.7-1.8,0.7-2.5,0l-32-32c-0.3-0.3-0.5-0.7-0.5-1.2l-0.6-18.9
		c0-0.5,0.2-0.9,0.5-1.3l0,0c0.3-0.3,0.8-0.5,1.3-0.5l19.4,0.2c0.5,0,0.9,0.2,1.2,0.5l32,32C-215,426.9-215,428-215.7,428.7z
		 M-235.7,443.7l16.3-16.3l-30.2-30.2l-16.8-0.2l0.5,16.4L-235.7,443.7z"/>
	<g id="XMLID_1_">
		<path id="XMLID_2_" class="st0" d="M-254.1,412.9c-0.4-0.4-0.7-0.8-0.9-1.3c-0.2-0.4-0.2-0.9-0.2-1.3s0.1-0.8,0.3-1.2
			c0.2-0.4,0.4-0.7,0.7-1c0.3-0.3,0.6-0.5,1-0.7c0.4-0.2,0.8-0.3,1.2-0.3s0.9,0,1.3,0.2c0.4,0.2,0.9,0.5,1.3,0.9
			c0.3,0.3,0.6,0.6,0.7,1c0.2,0.3,0.2,0.6,0.3,0.9c0,0.3,0,0.5,0,0.8c0,0.2-0.1,0.4-0.2,0.6c-0.1,0.2-0.2,0.4-0.3,0.6l-1.2-1.2
			c0.1-0.2,0.1-0.3,0.1-0.5c0-0.1,0-0.3-0.1-0.5c-0.1-0.2-0.2-0.4-0.4-0.6c-0.3-0.3-0.5-0.4-0.9-0.5c-0.3-0.1-0.6,0-0.9,0.1
			s-0.5,0.3-0.8,0.5c-0.2,0.2-0.4,0.5-0.5,0.8c-0.1,0.3-0.1,0.6-0.1,0.9c0.1,0.3,0.2,0.6,0.5,0.9c0.3,0.3,0.5,0.4,0.8,0.5
			c0.3,0,0.5,0,0.8-0.2l-1.1-1.1l0.9-0.9l2.3,2.3l-0.4,0.4c-0.5,0.5-1,0.8-1.5,1c-0.5,0.1-1,0.1-1.5,0
			C-253.2,413.6-253.7,413.3-254.1,412.9z"/>
		<path id="XMLID_4_" class="st0" d="M-251.3,415.6l4.7-4.7l2,2c0.3,0.3,0.6,0.7,0.7,1.1c0.2,0.4,0.2,0.7,0.1,1.1
			c-0.1,0.4-0.3,0.7-0.6,1c-0.3,0.3-0.7,0.5-1,0.6c-0.4,0.1-0.7,0-1.1-0.1l-1,2.8l-1.3-1.3l0.9-2.5l-0.6-0.6l-1.7,1.7L-251.3,415.6z
			 M-245.7,414l-0.8-0.8l-1,1l0.8,0.8c0.2,0.2,0.3,0.3,0.5,0.3s0.4,0,0.5-0.2c0.2-0.2,0.2-0.3,0.2-0.5
			C-245.4,414.3-245.5,414.2-245.7,414z"/>
		<path id="XMLID_7_" class="st0" d="M-246.9,420l6.2-3.1l1.6,1.6l-3.1,6.2l-1.3-1.3l0.5-1l-1.7-1.7l-1,0.5L-246.9,420z M-243.3,420
			l1.1,1.1l1.2-2.3L-243.3,420z"/>
		<path id="XMLID_10_" class="st0" d="M-241.1,425.8l3.6-3.6l-1.4-1.4l1-1l4,4l-1,1l-1.4-1.4l-3.6,3.6L-241.1,425.8z"/>
		<path id="XMLID_12_" class="st0" d="M-237.9,429l4.7-4.7l1.2,1.2l-4.7,4.7L-237.9,429z"/>
		<path id="XMLID_69_" class="st0" d="M-234.1,432.9c-0.3-0.3-0.6-0.6-0.7-0.9c-0.2-0.3-0.2-0.6-0.3-0.9c0-0.3,0-0.5,0-0.7
			c0-0.2,0.1-0.4,0.2-0.6c0.1-0.2,0.2-0.3,0.3-0.5l1.2,1.2c-0.1,0.2-0.1,0.3-0.2,0.4c0,0.1,0,0.3,0.1,0.5c0.1,0.2,0.2,0.4,0.4,0.6
			c0.2,0.2,0.5,0.4,0.7,0.4c0.2,0,0.3,0,0.5-0.2c0.1-0.1,0.1-0.2,0.1-0.4c0-0.1-0.1-0.3-0.2-0.5l-0.5-0.7c-0.2-0.3-0.4-0.6-0.5-1
			c-0.1-0.3-0.2-0.7-0.1-1c0-0.3,0.2-0.7,0.5-1c0.3-0.3,0.6-0.5,1-0.6c0.4-0.1,0.8,0,1.2,0.1c0.4,0.2,0.8,0.4,1.2,0.8
			c0.3,0.3,0.5,0.6,0.7,0.9c0.1,0.3,0.2,0.5,0.3,0.8c0,0.2,0,0.5,0,0.7s-0.1,0.4-0.2,0.5c-0.1,0.2-0.2,0.3-0.3,0.5l-1.2-1.2
			c0.1-0.1,0.1-0.2,0.1-0.4c0-0.1,0-0.2-0.1-0.4c-0.1-0.1-0.2-0.3-0.3-0.5c-0.2-0.2-0.3-0.3-0.4-0.3c-0.1,0-0.3-0.1-0.4,0
			c-0.1,0-0.2,0.1-0.3,0.1c-0.1,0.1-0.2,0.3-0.1,0.4c0.1,0.2,0.2,0.4,0.3,0.6l0.5,0.8c0.2,0.3,0.4,0.6,0.5,0.9
			c0.1,0.3,0.1,0.7,0.1,1c-0.1,0.3-0.2,0.6-0.5,0.9s-0.6,0.5-1,0.5c-0.4,0.1-0.8,0-1.2-0.1C-233.1,433.5-233.7,433.3-234.1,432.9z"
			/>
	</g>
	<path id="XMLID_54_" class="st0" d="M-257.9,405.2c-1.1,1.1-3,1.1-4.1,0s-1.1-3,0-4.1c1.1-1.1,3-1.1,4.1,0
		C-256.8,402.2-256.7,404.1-257.9,405.2z M-261.2,401.9c-0.7,0.7-0.7,1.8,0,2.5c0.7,0.7,1.8,0.7,2.5,0c0.7-0.7,0.7-1.8,0-2.5
		C-259.4,401.2-260.5,401.2-261.2,401.9z"/>
</g>
</svg>
